<svg xmlns="http://www.w3.org/2000/svg" width="200" height="140" viewBox="0 0 200 140">
  <g id="esporte" transform="translate(-600 -620)">
    <path id="esporte-2" data-name="esporte" d="M47,79.4l31-45h56l-34,52m0,0H51m49,0L72,20H90.5m66.2,59a6.9,6.9,0,1,0,6.9,6.9A6.9,6.9,0,0,0,156.7,79Zm0,0L134.5,34.4V20H155a7,7,0,0,1,0,14h-2.5M77.6,85.9A34.3,34.3,0,1,1,43.3,51.6,34.3,34.3,0,0,1,77.6,85.9Zm113.4,0a34.3,34.3,0,1,1-34.3-34.3A34.3,34.3,0,0,1,191,85.9Zm-140.8,0A6.9,6.9,0,1,1,43.3,79a6.9,6.9,0,0,1,6.9,6.9Z" transform="translate(600.5 619.5)" fill="none" stroke="#ff855c" stroke-linecap="round" stroke-linejoin="round" stroke-miterlimit="10" stroke-width="4"/>
    <rect id="Retângulo_20" data-name="Retângulo 20" width="200" height="140" transform="translate(600 620)" fill="none"/>
  </g>
</svg>
