<svg xmlns="http://www.w3.org/2000/svg" width="200" height="140" viewBox="0 0 200 140">
  <g id="passeio" transform="translate(-280 -620)">
    <path id="passeio-2" data-name="passeio" d="M50.5,89.5h49m0,0L89.306,74M99.5,89.5c4.5-13.667,18.9-41,40.5-41M75.5,53,63,34M75.5,53C69,56,52,71,47,83.5M75.5,53l13.81,21M63,34H53m10,0H81m8.306,40C94.5,60.5,108.3,34,133.5,34H157M113,15h11l4.4,9M156,82.5,137.689,43m0,0H160l-6-19H128.4m9.289,19L128.4,24M78,89.5A34.5,34.5,0,1,1,43.5,55,34.5,34.5,0,0,1,78,89.5Zm-28,0A6.5,6.5,0,1,1,43.5,83,6.5,6.5,0,0,1,50,89.5Zm141,0A34.5,34.5,0,1,1,156.5,55,34.5,34.5,0,0,1,191,89.5Zm-28,0a6.5,6.5,0,1,1-6.5-6.5A6.5,6.5,0,0,1,163,89.5Z" transform="translate(280.5 620.5)" fill="none" stroke="#ff855c" stroke-linecap="round" stroke-linejoin="round" stroke-width="4"/>
    <rect id="Retângulo_19" data-name="Retângulo 19" width="200" height="140" transform="translate(280 620)" fill="none"/>
  </g>
</svg>
