<svg xmlns="http://www.w3.org/2000/svg" width="58" height="58" viewBox="0 0 58 58"><g transform="translate(-968 -66)"><g transform="translate(968 66)" fill="none" stroke="#ff855c" stroke-width="3"><rect width="58" height="58" stroke="none"/><rect x="1.5" y="1.5" width="55" height="55" fill="none"/></g><path d="M28.981,22.361a6.62,6.62,0,0,1-6.62,6.62H9.639a6.62,6.62,0,0,1-6.62-6.62V9.638a6.62,6.62,0,0,1,6.62-6.62H22.361a6.62,6.62,0,0,1,6.62,6.62V22.361ZM32,9.638A9.639,9.639,0,0,0,22.36,0H9.64A9.638,9.638,0,0,0,0,9.638V22.361A9.64,9.64,0,0,0,9.64,32H22.36A9.64,9.64,0,0,0,32,22.36ZM16.054,21.268a5.062,5.062,0,1,1,5.062-5.062,5.068,5.068,0,0,1-5.062,5.062Zm0-12.964a7.9,7.9,0,1,0,7.9,7.9,7.911,7.911,0,0,0-7.9-7.9Zm8.364-2.413A1.881,1.881,0,1,0,26.3,7.772a1.882,1.882,0,0,0-1.882-1.881Z" transform="translate(981 79)" fill="#ff855c"/></g></svg>