<svg xmlns="http://www.w3.org/2000/svg" width="58" height="58" viewBox="0 0 58 58">
  <g id="twitter" transform="translate(-1046 -66)">
    <g id="Retângulo_5" data-name="Retângulo 5" transform="translate(1046 66)" fill="none" stroke="#ff855c" stroke-width="3">
      <rect width="58" height="58" stroke="none"/>
      <rect x="1.5" y="1.5" width="55" height="55" fill="none"/>
    </g>
    <path id="twitter-2" data-name="twitter" d="M31.88,6.16a13.172,13.172,0,0,1-3.232.923c.52-.088,1.288-1.03,1.595-1.412a5.947,5.947,0,0,0,1.076-1.96c.028-.056.05-.126-.006-.169a.188.188,0,0,0-.172.015A16.517,16.517,0,0,1,27.3,5.027a.258.258,0,0,1-.265-.07,3.1,3.1,0,0,0-.335-.344,6.8,6.8,0,0,0-1.86-1.14,6.477,6.477,0,0,0-2.853-.46,6.826,6.826,0,0,0-2.707.765A6.982,6.982,0,0,0,17.1,5.56a6.7,6.7,0,0,0-1.3,2.612,7.108,7.108,0,0,0-.07,2.757c.022.154.008.175-.131.154C10.319,10.3,5.949,8.412,2.4,4.37c-.154-.176-.238-.176-.364.013-1.553,2.328-.8,6.067,1.14,7.905.259.245.524.49.811.713a6.717,6.717,0,0,1-2.546-.713c-.154-.1-.231-.041-.245.133a3.99,3.99,0,0,0,.042.756,6.767,6.767,0,0,0,4.17,5.394,3.94,3.94,0,0,0,.846.258,7.541,7.541,0,0,1-2.5.078c-.182-.036-.252.055-.182.23A7.019,7.019,0,0,0,8.821,23.53c.238.042.476.042.714.1-.014.021-.028.021-.042.042-.59.9-2.632,1.567-3.583,1.9a12.845,12.845,0,0,1-5.442.7c-.292-.043-.354-.04-.433,0s-.01.12.084.195c.37.245.748.462,1.133.672A17.95,17.95,0,0,0,4.89,28.588c6.537,1.805,13.9.479,18.81-4.4,3.853-3.83,5.2-9.111,5.2-14.4,0-.206.244-.32.39-.43A12.646,12.646,0,0,0,31.842,6.7.774.774,0,0,0,32,6.188V6.16C32,6.076,32.01,6.1,31.88,6.16Z" transform="translate(1059 79.001)" fill="#ff855c" fill-rule="evenodd"/>
  </g>
</svg>
