<svg xmlns="http://www.w3.org/2000/svg" width="200" height="124" viewBox="0 0 200 124"><path d="M9.251,10.185c3.136-.124,10.784-.374,14.672-1.248-.126,1.624-.377,6.618-.377,16.106v4.245c3.511-2.872,6.4-4.371,9.907-4.371a10.34,10.34,0,0,1,9.029,4.62A19.521,19.521,0,0,1,44.99,39.651c0,11.61-5.517,18.227-16.679,18.227a21.112,21.112,0,0,1-8.778-2.123c-1.5.5-3.511,1.5-5.517,2.123l-.628-.376c.126-3.372.126-9.738.126-18.353V23.169c0-4-.126-6.742-.251-9.113-.126-1.624-.5-1.874-4.264-1.874Zm19.06,45.32c4.264,0,6.27-5.12,6.27-14.608a20.541,20.541,0,0,0-1.756-9.239,4.524,4.524,0,0,0-4.013-2.5,5.779,5.779,0,0,0-4.641,2.747c-.626.875-.877,1.624-.877,11.486,0,8.116.377,8.366.879,9.364A4.515,4.515,0,0,0,28.311,55.505Zm38.622,1.624c-2.634,0-5.267-.252-9.406-.252-4.388,0-6.521.252-8.651.252V55.006c3.511-.126,4.013-.749,4.139-2.123.124-1.5.251-3.869.251-7.74v-7.99c0-3.246,0-5.867-.126-6.991s-.628-1.5-3.888-1.372V26.665c4.39-.374,9.657-.5,13.92-1.372-.126,1.624-.251,4.62-.251,11.486v8.615c0,4,.126,5.743.251,7.491s.628,2,3.762,2.371ZM57.528,10.811c3.262,0,5.142,1.874,5.142,5.244,0,2.872-2.133,4.87-5.393,4.87a4.664,4.664,0,0,1-4.889-4.87,4.959,4.959,0,0,1,5.142-5.244Zm12.666-.625A92.863,92.863,0,0,0,83.863,8.937q-.254,7.738-.253,15.481V40.024c2.384-.625,7.524-6.867,9.53-10.487.377-.749.377-1.125-.626-1.125l-2.759-.25V26.042c4.641.126,9.406-.126,14.171-.376V27.79c-3.511.376-4.892.625-6.272,1.748a58.531,58.531,0,0,0-6.019,6.242c1.5,3.122,7.777,14.608,10.158,17.728a3.5,3.5,0,0,0,3.136,1.5l1.754.126-.124,2.121A93.363,93.363,0,0,0,92.639,58c-1.5-3.5-6.019-11.985-7.4-14.608-.752-1.372-1.13-1.872-1.631-1.748,0,5.12-.124,7.617.126,11.236.126,1.624.5,2.123,3.888,2.247v2.123c-2.384,0-4.891-.25-9.029-.25-4.891,0-7.022.25-8.9.25V55.13c3.26-.124,3.762-.747,3.888-2,.124-1.5.249-4.744.249-11.236v-16.1c0-5.12,0-8.989-.124-12.235q0-1.124-1.5-1.125H70.067Zm-30.22,77.78c-2.133,6.742-6.27,9.988-13.168,9.988-5.895,0-9.657-1.624-12.289-5.12-2.006-2.621-3.01-6.492-3.01-10.861,0-9.614,5.895-16.979,16.679-16.979,6.521,0,11.286,3,11.286,7.866,0,3.37-2.759,4.742-5.016,4.742a5.71,5.71,0,0,1-2.508-.623,1.947,1.947,0,0,1-.879-2.247,18.729,18.729,0,0,0,.377-2.623c0-3.12-1.13-4.618-3.511-4.618-3.888,0-5.895,5.619-5.895,13.359,0,3.12.377,6.616,1.5,8.737,1.254,2.872,3.26,4.494,6.27,4.494,3.762,0,6.145-2.121,7.9-6.991Zm7.147-9.113a69.446,69.446,0,0,0-.377-8.741,1.32,1.32,0,0,0-1.5-1.246H42.982V66.741c3.762-.126,8.9-.376,12.54-1.5l.377.25c.251,1.5.5,5.12.628,7.367h.249c1.633-4.371,3.888-7.866,8.529-7.866a4.714,4.714,0,0,1,4.641,4.994c0,4.121-3.136,5.369-4.39,5.369a2.431,2.431,0,0,1-2.508-1.25c-.626-1.372-1-2.121-2.255-2.121-1.38,0-2.133,1.248-3.01,3.246a13.2,13.2,0,0,0-.628,4.494c0,7.117,0,11.112.126,12.86s.75,2.245,5.766,2.371l-.124,2.123c-3.511-.126-6.647-.252-10.283-.252-3.762,0-6.521.126-9.657.252l.375-2.123c3.01-.126,3.762-.5,3.762-1.748.126-1.748.251-5.12.251-8.989V78.85h-.251Zm42.511-5.743c0-3.747-1.256-5.745-3.764-5.745-2.883,0-4.262,1.624-4.262,4.62a13.877,13.877,0,0,0,.249,2.373,1.775,1.775,0,0,1-.75,1.872,6.875,6.875,0,0,1-3.511,1.125c-2.384,0-4.39-1.127-4.39-3.871,0-4,5.895-8.489,14.171-8.489,6.769,0,9.779,2.747,10.909,4.494a6.254,6.254,0,0,1,1,3.372V91.211c0,2.123.628,2.623,1.38,2.623,1,0,2.131-1.624,2.632-4.371l2.133,1c-1.13,5.369-4.39,7.617-8.9,7.617-3.888,0-6.019-1.624-6.647-4.87-3.01,3-6.143,4.87-9.4,4.87-5.267,0-8.778-3.5-8.778-9.241,0-3.5,1.5-5.493,4.139-6.616C80.1,80.349,86.5,78.477,89.629,76.23V73.107Zm-7.9,13.857c0,2.747,1.13,5.743,3.888,5.743a3.734,3.734,0,0,0,3.511-2.5,9.237,9.237,0,0,0,.375-3V78.727c-1.38.875-3.511,1.874-5.142,2.872C82.858,82.6,81.73,83.844,81.73,86.966Zm24.829-20.848,4.013.124v-2c.126-5.243,1.38-9.115,4.139-11.861a12.42,12.42,0,0,1,9.153-3.745c5.142,0,7.9,2.5,7.9,5.743,0,2.373-2.006,4-4.767,4a2.364,2.364,0,0,1-2.508-2.5c0-2.621-.375-4.742-2.255-4.742-1.256,0-2.006,1.123-2.259,3.246-.249,2,.126,5.743.377,11.61H126.5l-.377,2.5-5.768.376c-.126,2.371-.126,6.492-.126,11.36,0,4.62,0,8.739.126,11.985.126,1.624.377,2.247,1.756,2.373a33.581,33.581,0,0,0,3.387.248l-.255,2.123c-2.382,0-6.143-.25-9.4-.25-3.387,0-7.4.25-9.657.25l.126-2.123c3.26-.124,3.762-.5,3.888-1.872.249-2.123.249-5.369.249-9.738V68.739l-4.262-.25.375-2.373Z" transform="translate(9.057 8.994)" fill="#ff855c"/><path d="M89.945,43.161l-.253,2.382-7.648.5c0,2.634-.126,6.521-.126,11.787,0,5.517,0,9.279.253,11.537.124,1.631.75,2.384,2.006,2.384,2.632,0,4.262-2.885,4.889-5.517h1l.879,2.883c-1.5,3.638-5.269,6.145-10.786,6.145-3.01,0-5.642-1-6.9-2.508a6.909,6.909,0,0,1-1.254-4.514c0-5.142.251-16.679.251-22.2l-4.013-.377.251-2.382h3.762c.126-2.384.126-5.142.126-7.65A34.657,34.657,0,0,0,81.793,32l.752.126q-.329,5.574-.377,11.159h7.777v-.126Z" transform="translate(68.195 31.809)" fill="#ff855c"/><path d="M190,10V114H10V10ZM200,0H0V124H200Z" fill="#ff855c"/></svg>