<svg id="bikcraft" xmlns="http://www.w3.org/2000/svg" width="100" height="62" viewBox="0 0 100 62">
  <path id="Caminho_10" data-name="Caminho 10" d="M9.125,9.562a52.372,52.372,0,0,0,7.313-.625c-.063.813-.188,3.313-.188,8.063v2.125c1.75-1.438,3.188-2.188,4.938-2.188a5.147,5.147,0,0,1,4.5,2.313,9.806,9.806,0,0,1,1.25,5.063c0,5.812-2.75,9.125-8.313,9.125a10.485,10.485,0,0,1-4.375-1.063c-.75.25-1.75.75-2.75,1.063l-.313-.188c.063-1.688.063-4.875.063-9.188v-8c0-2-.063-3.375-.125-4.562-.063-.813-.25-.938-2.125-.938Zm9.5,22.688c2.125,0,3.125-2.563,3.125-7.313a10.323,10.323,0,0,0-.875-4.625,2.254,2.254,0,0,0-2-1.25,2.878,2.878,0,0,0-2.313,1.375c-.312.438-.437.813-.437,5.75,0,4.063.188,4.188.438,4.688A2.25,2.25,0,0,0,18.625,32.25Zm19.25.813c-1.313,0-2.625-.126-4.688-.126-2.187,0-3.25.126-4.312.126V32c1.75-.063,2-.375,2.063-1.063.062-.75.125-1.937.125-3.875v-4c0-1.625,0-2.937-.063-3.5s-.313-.75-1.938-.687V17.812A63.589,63.589,0,0,0,36,17.125c-.063.813-.125,2.313-.125,5.75v4.313c0,2,.063,2.875.125,3.75s.313,1,1.875,1.187ZM33.187,9.875A2.355,2.355,0,0,1,35.75,12.5a2.436,2.436,0,0,1-2.688,2.438A2.33,2.33,0,0,1,30.625,12.5a2.477,2.477,0,0,1,2.563-2.625ZM39.5,9.562a46.086,46.086,0,0,0,6.813-.625q-.127,3.874-.126,7.75V24.5c1.188-.313,3.75-3.438,4.75-5.25.188-.375.188-.563-.312-.563l-1.375-.125V17.5c2.313.063,4.688-.063,7.063-.188v1.063c-1.75.188-2.438.313-3.126.875a29.244,29.244,0,0,0-3,3.125A91.609,91.609,0,0,0,55.25,31.25a1.742,1.742,0,0,0,1.563.75l.874.063-.062,1.062a46.331,46.331,0,0,0-6.938.375c-.75-1.75-3-6-3.687-7.313-.375-.687-.563-.937-.813-.875,0,2.563-.062,3.813.063,5.625.063.813.25,1.063,1.938,1.125v1.063C47,33.125,45.75,33,43.688,33c-2.438,0-3.5.125-4.438.125V32.062c1.625-.062,1.875-.374,1.938-1,.062-.75.124-2.375.124-5.625V17.375c0-2.563,0-4.5-.062-6.125q0-.562-.75-.563H39.437ZM24.438,48.5c-1.063,3.375-3.125,5-6.563,5-2.938,0-4.813-.813-6.125-2.563a9.036,9.036,0,0,1-1.5-5.437c0-4.813,2.938-8.5,8.313-8.5,3.25,0,5.625,1.5,5.625,3.938a2.35,2.35,0,0,1-2.5,2.374A2.836,2.836,0,0,1,20.438,43,.976.976,0,0,1,20,41.875a9.415,9.415,0,0,0,.188-1.313c0-1.562-.563-2.312-1.75-2.312-1.938,0-2.938,2.813-2.938,6.688a10.357,10.357,0,0,0,.75,4.374,3.258,3.258,0,0,0,3.125,2.25c1.875,0,3.063-1.062,3.938-3.5ZM28,43.938a34.919,34.919,0,0,0-.188-4.376.659.659,0,0,0-.75-.624H25.937V37.875a26.356,26.356,0,0,0,6.25-.75l.188.125c.125.75.25,2.563.313,3.688h.124C33.626,38.75,34.75,37,37.063,37a2.355,2.355,0,0,1,2.313,2.5,2.465,2.465,0,0,1-2.188,2.688,1.21,1.21,0,0,1-1.25-.626c-.312-.687-.5-1.062-1.124-1.062-.688,0-1.063.625-1.5,1.625A6.636,6.636,0,0,0,33,44.375c0,3.563,0,5.563.063,6.438s.374,1.124,2.874,1.187l-.062,1.063c-1.75-.063-3.313-.126-5.125-.126-1.875,0-3.25.063-4.813.126L26.125,52c1.5-.063,1.875-.25,1.875-.875.063-.875.125-2.563.125-4.5V43.937H28Zm21.188-2.875c0-1.876-.626-2.876-1.876-2.876-1.437,0-2.124.813-2.124,2.313a6.977,6.977,0,0,0,.124,1.188.89.89,0,0,1-.374.937,3.416,3.416,0,0,1-1.75.563C42,43.188,41,42.624,41,41.25c0-2,2.938-4.25,7.063-4.25,3.374,0,4.874,1.375,5.437,2.25a3.141,3.141,0,0,1,.5,1.688v9.187c0,1.063.313,1.313.688,1.313.5,0,1.062-.813,1.312-2.188l1.063.5c-.563,2.688-2.188,3.813-4.438,3.813-1.938,0-3-.813-3.313-2.438-1.5,1.5-3.062,2.438-4.687,2.438-2.625,0-4.375-1.75-4.375-4.626a3.231,3.231,0,0,1,2.063-3.312c2.124-.938,5.312-1.875,6.874-3V41.062ZM45.25,48c0,1.375.563,2.875,1.938,2.875a1.862,1.862,0,0,0,1.75-1.25,4.643,4.643,0,0,0,.187-1.5v-4.25c-.688.438-1.75.938-2.563,1.438A2.773,2.773,0,0,0,45.25,48ZM57.625,37.563l2,.062v-1c.063-2.625.688-4.563,2.063-5.938a6.177,6.177,0,0,1,4.562-1.875c2.563,0,3.938,1.25,3.938,2.875a2.122,2.122,0,0,1-2.376,2,1.181,1.181,0,0,1-1.25-1.25c0-1.312-.187-2.374-1.124-2.374-.626,0-1,.562-1.126,1.625A56.755,56.755,0,0,0,64.5,37.5h3.063l-.188,1.25-2.875.188c-.063,1.187-.063,3.25-.063,5.687,0,2.313,0,4.375.063,6,.063.813.188,1.125.875,1.188a16.664,16.664,0,0,0,1.688.124L66.936,53c-1.187,0-3.062-.125-4.687-.125-1.688,0-3.688.125-4.813.125l.063-1.063c1.625-.062,1.875-.25,1.938-.937.124-1.063.124-2.688.124-4.875v-7.25l-2.124-.125.187-1.188Z" fill="#12130f"/>
  <path id="Caminho_11" data-name="Caminho 11" d="M79.063,37.563l-.126,1.187L75.125,39c0,1.313-.063,3.25-.063,5.875,0,2.75,0,4.625.126,5.75.062.813.374,1.188,1,1.188,1.312,0,2.124-1.438,2.437-2.75h.5l.438,1.437c-.75,1.813-2.626,3.063-5.376,3.063a4.575,4.575,0,0,1-3.437-1.25,3.443,3.443,0,0,1-.625-2.25c0-2.563.125-8.313.125-11.063l-2-.188.125-1.187H70.25c.063-1.188.063-2.563.063-3.813A17.273,17.273,0,0,0,75,32l.375.063q-.164,2.778-.188,5.562h3.876v-.063Z" fill="#12130f"/>
  <path id="Caminho_12" data-name="Caminho 12" d="M95,5V57H5V5Zm5-5H0V62H100Z" fill="#12130f"/>
</svg>
